<svg width="14" height="5" viewBox="0 0 14 7" fill="none" xmlns="http://www.w3.org/2000/svg">
<path d="M6.42361 6.7984C6.48783 6.86057 6.57376 6.91141 6.67401 6.94653C6.77425 6.98165 6.8858 7 6.99905 7C7.1123 7 7.22385 6.98165 7.32409 6.94653C7.42434 6.91141 7.51027 6.86057 7.5745 6.7984L13.875 0.73215C13.9479 0.662181 13.9907 0.580228 13.9986 0.495195C14.0066 0.410163 13.9794 0.325302 13.9201 0.249833C13.8608 0.174365 13.7716 0.111175 13.6622 0.0671292C13.5528 0.0230835 13.4274 -0.000133618 13.2995 5.78465e-07H0.698558C0.571038 0.000351679 0.446075 0.0238674 0.337106 0.0680186C0.228137 0.11217 0.139286 0.175286 0.0801074 0.25058C0.020929 0.325874 -0.00633771 0.410497 0.00123966 0.495348C0.00881702 0.580199 0.0509517 0.662067 0.123113 0.73215L6.42361 6.7984Z" fill="#2F4858"/>
</svg>
