<svg width="20" height="21" viewBox="0 0 20 21" fill="none" xmlns="http://www.w3.org/2000/svg">
<rect width="20" height="21" fill="#D9D9D9"/>
<g id="06 . PLAY GROUND" clip-path="url(#clip0_0_1)">
<rect width="1440" height="1024" transform="translate(-300 -228)" fill="#F3F5F7"/>
<g id="Create New Site Popup">
<rect x="-30" y="-61" width="1140" height="104" fill="white"/>
<g id="Group 517345369">
<g id="Frame 517347550">
<g id="Frame 517345368">
<g id="Group 517345368">
<path id="Ellipse 384" d="M20 10.5C20 16.0228 15.5228 20.5 10 20.5C4.47715 20.5 0 16.0228 0 10.5C0 4.97715 4.47715 0.5 10 0.5C15.5228 0.5 20 4.97715 20 10.5ZM1.79241 10.5C1.79241 15.0329 5.46707 18.7076 10 18.7076C14.5329 18.7076 18.2076 15.0329 18.2076 10.5C18.2076 5.96707 14.5329 2.29241 10 2.29241C5.46707 2.29241 1.79241 5.96707 1.79241 10.5Z" fill="#5FA452"/>
<circle id="Ellipse 385" cx="10" cy="10.5" r="6" fill="#5FA452"/>
</g>
</g>
</g>
</g>
</g>
</g>
<defs>
<clipPath id="clip0_0_1">
<rect width="1440" height="1024" fill="white" transform="translate(-300 -228)"/>
</clipPath>
</defs>
</svg>
